<svg width="66" height="66" viewBox="0 0 66 66" fill="none" xmlns="http://www.w3.org/2000/svg">
<circle cx="33" cy="33" r="33" fill="#D0A711"/>
<circle cx="33" cy="33" r="29" fill="#FCD030"/>
<path d="M37.6875 54.25C35.7516 54.25 34.0566 53.4175 33 52.0103C31.9434 53.4175 30.2484 54.25 28.3125 54.25C26.7715 54.2483 25.294 53.6353 24.2044 52.5456C23.1147 51.456 22.5017 49.9785 22.5 48.4375C22.5 41.875 32.2303 36.5631 32.6447 36.3438C32.7539 36.285 32.876 36.2542 33 36.2542C33.124 36.2542 33.2461 36.285 33.3553 36.3438C33.7697 36.5631 43.5 41.875 43.5 48.4375C43.4983 49.9785 42.8853 51.456 41.7956 52.5456C40.706 53.6353 39.2285 54.2483 37.6875 54.25ZM33 37.8625C31.2881 38.86 24 43.4041 24 48.4375C24.0015 49.5808 24.4563 50.6768 25.2647 51.4853C26.0732 52.2937 27.1692 52.7485 28.3125 52.75C30.1359 52.75 31.6669 51.7787 32.3062 50.2188C32.3628 50.0812 32.4589 49.9635 32.5824 49.8807C32.7059 49.7979 32.8513 49.7537 33 49.7537C33.1487 49.7537 33.2941 49.7979 33.4176 49.8807C33.5411 49.9635 33.6372 50.0812 33.6937 50.2188C34.3331 51.7816 35.8641 52.75 37.6875 52.75C38.8308 52.7485 39.9268 52.2937 40.7353 51.4853C41.5437 50.6768 41.9985 49.5808 42 48.4375C42 43.4116 34.71 38.8609 33 37.8625Z" fill="#FFF589"/>
<path d="M11.75 37.6875C11.75 35.7516 12.5825 34.0566 13.9897 33C12.5825 31.9434 11.75 30.2484 11.75 28.3125C11.7517 26.7715 12.3647 25.294 13.4544 24.2044C14.544 23.1147 16.0215 22.5017 17.5625 22.5C24.125 22.5 29.4369 32.2303 29.6562 32.6447C29.715 32.7539 29.7458 32.876 29.7458 33C29.7458 33.124 29.715 33.2461 29.6562 33.3553C29.4369 33.7697 24.125 43.5 17.5625 43.5C16.0215 43.4983 14.544 42.8853 13.4544 41.7956C12.3647 40.706 11.7517 39.2285 11.75 37.6875ZM28.1375 33C27.14 31.2881 22.5959 24 17.5625 24C16.4192 24.0015 15.3232 24.4563 14.5147 25.2647C13.7063 26.0732 13.2515 27.1692 13.25 28.3125C13.25 30.1359 14.2213 31.6669 15.7812 32.3062C15.9188 32.3628 16.0365 32.4589 16.1193 32.5824C16.2021 32.7059 16.2463 32.8513 16.2463 33C16.2463 33.1487 16.2021 33.2941 16.1193 33.4176C16.0365 33.5411 15.9188 33.6372 15.7812 33.6937C14.2184 34.3331 13.25 35.8641 13.25 37.6875C13.2515 38.8308 13.7063 39.9268 14.5147 40.7353C15.3232 41.5437 16.4192 41.9985 17.5625 42C22.5884 42 27.1391 34.71 28.1375 33Z" fill="#FFF589"/>
<path d="M54.25 37.6875C54.25 35.7516 53.4175 34.0566 52.0103 33C53.4175 31.9434 54.25 30.2484 54.25 28.3125C54.2483 26.7715 53.6353 25.294 52.5456 24.2044C51.456 23.1147 49.9785 22.5017 48.4375 22.5C41.875 22.5 36.5631 32.2303 36.3438 32.6447C36.285 32.7539 36.2542 32.876 36.2542 33C36.2542 33.124 36.285 33.2461 36.3438 33.3553C36.5631 33.7697 41.875 43.5 48.4375 43.5C49.9785 43.4983 51.456 42.8853 52.5456 41.7956C53.6353 40.706 54.2483 39.2285 54.25 37.6875ZM37.8625 33C38.86 31.2881 43.4041 24 48.4375 24C49.5808 24.0015 50.6768 24.4563 51.4853 25.2647C52.2937 26.0732 52.7485 27.1692 52.75 28.3125C52.75 30.1359 51.7787 31.6669 50.2188 32.3062C50.0812 32.3628 49.9635 32.4589 49.8807 32.5824C49.7979 32.7059 49.7537 32.8513 49.7537 33C49.7537 33.1487 49.7979 33.2941 49.8807 33.4176C49.9635 33.5411 50.0812 33.6372 50.2188 33.6937C51.7816 34.3331 52.75 35.8641 52.75 37.6875C52.7485 38.8308 52.2937 39.9268 51.4853 40.7353C50.6768 41.5437 49.5808 41.9985 48.4375 42C43.4116 42 38.8609 34.71 37.8625 33Z" fill="#FFF589"/>
<path d="M37.6875 11.75C35.7516 11.75 34.0566 12.5825 33 13.9897C31.9434 12.5825 30.2484 11.75 28.3125 11.75C26.7715 11.7517 25.294 12.3647 24.2044 13.4544C23.1147 14.544 22.5017 16.0215 22.5 17.5625C22.5 24.125 32.2303 29.4369 32.6447 29.6562C32.7539 29.715 32.876 29.7458 33 29.7458C33.124 29.7458 33.2461 29.715 33.3553 29.6562C33.7697 29.4369 43.5 24.125 43.5 17.5625C43.4983 16.0215 42.8853 14.544 41.7956 13.4544C40.706 12.3647 39.2285 11.7517 37.6875 11.75ZM33 28.1375C31.2881 27.14 24 22.5959 24 17.5625C24.0015 16.4192 24.4563 15.3232 25.2647 14.5147C26.0732 13.7063 27.1692 13.2515 28.3125 13.25C30.1359 13.25 31.6669 14.2213 32.3062 15.7812C32.3628 15.9188 32.4589 16.0365 32.5824 16.1193C32.7059 16.2021 32.8513 16.2463 33 16.2463C33.1487 16.2463 33.2941 16.2021 33.4176 16.1193C33.5411 16.0365 33.6372 15.9188 33.6937 15.7812C34.3331 14.2184 35.8641 13.25 37.6875 13.25C38.8308 13.2515 39.9268 13.7063 40.7353 14.5147C41.5437 15.3232 41.9985 16.4192 42 17.5625C42 22.5884 34.71 27.1391 33 28.1375Z" fill="#FFF589"/>
</svg>
