<svg width="42" height="57" viewBox="0 0 42 57" fill="none" xmlns="http://www.w3.org/2000/svg">
<path d="M0 10C0 4.47715 4.47715 0 10 0H42V51H0V10Z" fill="#5B9CDC"/>
<path d="M0 51C0 47.134 3.13401 44 7 44H42V51H0Z" fill="#F7F5E6"/>
<path d="M23.7633 21.6344C23.7633 25.8574 21.8693 26.5281 17.6464 26.5281C13.4234 26.5281 10 23.1047 10 18.8817C10 14.6588 11.2821 12 15.5051 12C19.728 12 23.7633 17.4114 23.7633 21.6344Z" fill="#EEF1E2"/>
<path d="M23.7645 27.3894C23.7645 24.1473 23.5276 23.7754 21.0535 23.7754C18.5794 23.7754 15.3535 26.8966 15.3535 30.1387C15.3535 33.3809 16.4522 34.7861 18.9263 34.7861C21.4004 34.7861 23.7645 30.6316 23.7645 27.3894Z" fill="#EEF1E2"/>
<path d="M22.5402 27.3894C22.5402 24.1473 22.7771 23.7754 25.2512 23.7754C27.7253 23.7754 30.9512 26.8966 30.9512 30.1387C30.9512 33.3809 29.8525 34.7861 27.3784 34.7861C24.9043 34.7861 22.5402 30.6316 22.5402 27.3894Z" fill="#EEF1E2"/>
<path d="M22.6938 21.6344C22.6938 25.8574 24.5877 26.5281 28.8107 26.5281C33.0336 26.5281 36.457 23.1047 36.457 18.8817C36.457 14.6588 35.1749 12 30.952 12C26.729 12 22.6938 17.4114 22.6938 21.6344Z" fill="#EEF1E2"/>
<path d="M6 46H14V57L10 54L6 57V46Z" fill="#FF5858"/>
</svg>
