<svg width="46" height="53" viewBox="0 0 46 53" fill="none" xmlns="http://www.w3.org/2000/svg">
<path d="M5.53125 3.64784C5.53125 1.63319 7.16445 0 9.1791 0H11.8542C17.0923 0 21.3386 4.24631 21.3386 9.4844H10.9509C7.95771 9.4844 5.53125 7.05793 5.53125 4.06474V3.64784Z" fill="#5B9CDC"/>
<path d="M38.7285 3.64784C38.7285 1.63319 37.0953 0 35.0807 0H32.4056C27.1675 0 22.9212 4.24631 22.9212 9.4844H33.3089C36.3021 9.4844 38.7285 7.05793 38.7285 4.06474V3.64784Z" fill="#5B9CDC"/>
<rect x="1.57812" y="11.0654" width="41.8894" height="41.0991" rx="5" fill="#EEF1E2"/>
<path d="M0 13.6943C0 10.9329 2.23858 8.69434 5 8.69434H40.0509C42.8123 8.69434 45.0509 10.9329 45.0509 13.6943V25.292H0V13.6943Z" fill="#EEF1E2"/>
<path d="M0 25.2923C0 26.1653 0.707718 26.873 1.58073 26.873H43.4702C44.3432 26.873 45.0509 26.1653 45.0509 25.2923H0Z" fill="#D9DFC3"/>
<rect x="20.5488" y="4.74219" width="3.16147" height="4.7422" rx="1.58073" fill="#9FC4E8"/>
<rect x="17.3867" y="8.69434" width="9.4844" height="43.4702" fill="#5B9CDC"/>
</svg>
