<svg width="51" height="52" viewBox="0 0 51 52" fill="none" xmlns="http://www.w3.org/2000/svg">
<path d="M15.4414 39.018C15.4414 43.2818 11.9849 46.7383 7.72117 46.7383V46.7383C3.4574 46.7383 0.000934601 43.2818 0.000934601 39.018V31.3555C0.000934601 30.1418 0.984808 29.1579 2.19848 29.1579H15.4414V39.018Z" fill="#5B9CDC"/>
<path d="M35.5586 38.5884C35.5586 42.8521 39.0151 46.3086 43.2788 46.3086V46.3086C47.5426 46.3086 50.9991 42.8521 50.9991 38.5884V30.9258C50.9991 29.7121 50.0152 28.7282 48.8015 28.7282H35.5586V38.5884Z" fill="#5B9CDC"/>
<path d="M4.67773 24.7168C4.67773 13.6711 13.632 4.7168 24.6777 4.7168H25.3844C36.4301 4.7168 45.3844 13.6711 45.3844 24.7168V41.026C45.3844 46.5489 40.9073 51.026 35.3844 51.026H14.6777C9.15489 51.026 4.67773 46.5489 4.67773 41.026V24.7168Z" fill="#EEF1E2"/>
<path d="M24.5645 13.5059C30.8422 13.5059 35.9316 18.5952 35.9316 24.873V30.3057C35.9316 35 32.1259 38.8055 27.4316 38.8057H21.6973C17.0028 38.8057 13.1973 35.0001 13.1973 30.3057V24.873C13.1973 18.5952 18.2866 13.5059 24.5645 13.5059Z" stroke="#5B9CDC" stroke-width="3"/>
<rect x="10.291" y="32.1592" width="29.4773" height="12.8637" rx="6.43184" fill="#5B9CDC"/>
<path d="M33.3379 32.1592C34.2568 32.1592 35.1302 32.353 35.9209 32.7002C35.4755 35.8778 33.3091 38.8261 29.7539 40.25L29.2061 40.4697C26.4083 41.5902 23.2153 41.5297 20.4697 40.3057L19.5 39.874C16.302 38.4482 14.3179 35.7768 13.7812 32.8721C14.6633 32.4173 15.6638 32.1592 16.7246 32.1592H33.3379Z" fill="#8DB7FF"/>
<path d="M15.4414 35.1611H19.1846V39.7214C19.1846 40.755 18.3466 41.593 17.313 41.593V41.593C16.2793 41.593 15.4414 40.755 15.4414 39.7214V35.1611Z" fill="#EEF1E2"/>
<path d="M30.8828 35.1611H34.626V39.7214C34.626 40.755 33.788 41.593 32.7544 41.593V41.593C31.7207 41.593 30.8828 40.755 30.8828 39.7214V35.1611Z" fill="#EEF1E2"/>
<rect x="32.2852" width="5.14547" height="15.9084" rx="2.57273" transform="rotate(90 32.2852 0)" fill="#5B9CDC"/>
</svg>
