<svg width="385" height="385" viewBox="0 0 385 385" fill="none" xmlns="http://www.w3.org/2000/svg">
<rect width="385" height="385" rx="50" fill="#A5CB95"/>
<mask id="mask0_643_593" style="mask-type:alpha" maskUnits="userSpaceOnUse" x="0" y="0" width="385" height="385">
<rect width="385" height="385" rx="50" fill="#AFCB9C"/>
</mask>
<g mask="url(#mask0_643_593)">
<path d="M111.033 315.567C122.35 321.574 137.796 318.377 148.026 307.091C158.256 295.806 159.905 280.141 152.793 269.495L111.033 315.567Z" fill="#4B695F"/>
<mask id="mask1_643_593" style="mask-type:luminance" maskUnits="userSpaceOnUse" x="107" y="308" width="86" height="124">
<path d="M192.66 308.875H107.18V431.045H192.66V308.875Z" fill="white"/>
</mask>
<g mask="url(#mask1_643_593)">
<path d="M114.838 359.602C83.7872 406.897 154.948 458.78 189.268 413.786C190.429 412.267 191.542 410.697 192.602 409.077C206.745 387.533 209.441 361.304 202.407 335.93C194.356 306.901 154.597 299.045 138.766 323.152L114.838 359.602Z" fill="#748CC7"/>
</g>
<mask id="mask2_643_593" style="mask-type:luminance" maskUnits="userSpaceOnUse" x="192" y="308" width="87" height="124">
<path d="M278.14 308.875H192.66V431.045H278.14V308.875Z" fill="white"/>
</mask>
<g mask="url(#mask2_643_593)">
<path d="M270.481 359.602C301.532 406.897 230.371 458.78 196.051 413.786C194.89 412.267 193.777 410.697 192.717 409.077C178.574 387.533 175.878 361.304 182.913 335.93C190.963 306.901 230.722 299.045 246.553 323.152L270.481 359.602Z" fill="#748CC7"/>
</g>
<path d="M231.535 325.533L233.642 381.929C233.742 384.585 235.979 386.659 238.639 386.56C241.299 386.461 243.375 384.227 243.275 381.57L241.168 325.175C241.068 322.518 238.831 320.444 236.171 320.543C233.511 320.642 231.436 322.877 231.535 325.533Z" fill="#E8DADF"/>
<path d="M192.659 335.468C204.123 335.468 213.416 326.19 213.416 314.743C213.416 303.297 204.123 294.019 192.659 294.019C181.195 294.019 171.902 303.297 171.902 314.743C171.902 326.19 181.195 335.468 192.659 335.468Z" fill="#4B695F"/>
<path d="M274.729 311.516C263.413 317.523 247.966 314.326 237.737 303.04C227.507 291.755 225.857 276.09 232.969 265.444L274.729 311.516Z" fill="#4B695F"/>
<path d="M146.154 328.169L152.217 384.278C152.503 386.922 154.88 388.833 157.526 388.548C160.173 388.263 162.087 385.889 161.801 383.246L155.738 327.137C155.452 324.494 153.075 322.582 150.429 322.867C147.782 323.152 145.868 325.526 146.154 328.169Z" fill="#E8DADF"/>
<mask id="mask3_643_593" style="mask-type:luminance" maskUnits="userSpaceOnUse" x="122" y="252" width="72" height="88">
<path d="M193.469 252.543H122.727V339.718H193.469V252.543Z" fill="white"/>
</mask>
<g mask="url(#mask3_643_593)">
<path d="M122.727 338.377C153.946 344.135 183.9 331.03 193.553 305.477C198.908 291.305 197.039 275.886 189.66 262.192C181.221 246.523 154.246 251.341 145.71 266.588C136.503 283.034 122.727 338.377 122.727 338.377Z" fill="#E6E7E8"/>
</g>
<mask id="mask4_643_593" style="mask-type:luminance" maskUnits="userSpaceOnUse" x="193" y="252" width="72" height="88">
<path d="M264.209 252.543H193.467V339.718H264.209V252.543Z" fill="white"/>
</mask>
<g mask="url(#mask4_643_593)">
<path d="M264.212 338.377C232.992 344.135 203.038 331.03 193.385 305.477C188.03 291.305 189.899 275.886 197.278 262.192C205.717 246.523 232.692 251.341 241.228 266.588C250.436 283.034 264.212 338.377 264.212 338.377Z" fill="#E6E7E8"/>
</g>
<path d="M158.948 279.685C157.369 281.679 159.039 284.566 161.559 284.216C169.596 283.098 179.593 276.592 187.657 266.412C195.721 256.231 199.756 245.017 198.994 236.952C198.754 234.422 195.555 233.465 193.976 235.459L158.948 279.685Z" fill="#4B695F"/>
<path d="M227.835 279.81C230.018 282.283 227.842 286.12 224.596 285.523C216.863 284.102 207.517 278.348 199.628 269.417C191.74 260.486 187.192 250.508 186.746 242.669C186.561 239.377 190.643 237.7 192.83 240.172L227.835 279.81Z" fill="#4B695F"/>
<path d="M237.118 255.659C240.111 256.367 241.181 259.934 238.988 261.912C234.331 266.113 227.354 267.992 220.299 266.321C213.244 264.651 207.852 259.843 205.582 254.002C204.512 251.253 207.073 248.544 210.066 249.252L237.115 255.656L237.118 255.659Z" fill="#4B695F"/>
<path d="M176.987 249.776C178.812 249.291 180.459 250.915 180.084 252.764C178.704 259.583 173.272 265.505 165.671 267.52C158.069 269.534 150.41 267.085 145.825 261.85C144.58 260.428 145.204 258.205 147.029 257.72L176.99 249.773L176.987 249.776Z" fill="#4B695F"/>
<path d="M393.942 196.947C354.793 165.078 327.653 134.065 302.874 90.8429C283.015 56.2014 247.743 26 193.982 26C142.455 26 105.334 55.9622 85.3871 90.3107C60.3892 133.354 33.1881 164.229 -5.91642 196.068L-6.99609 196.947L51.5021 226.643C61.7051 231.824 72.7178 232.694 82.7115 230.244C89.2132 242.386 102.331 250.703 117.494 250.703C128.034 250.703 137.579 246.671 144.618 240.149C159.615 246.907 176.336 250.703 193.986 250.703C211.635 250.703 228.36 246.907 243.354 240.149C250.392 246.674 259.937 250.703 270.477 250.703C285.566 250.703 298.637 242.47 305.169 230.423C314.913 232.596 325.554 231.663 335.447 226.64L393.945 196.944L393.942 196.947Z" fill="#21273C"/>
<path d="M273.098 186.889C272.845 186.889 272.605 186.949 272.355 186.963C272.828 183.422 273.098 179.817 273.098 176.145C273.098 131.451 236.81 95.2197 192.048 95.2197C147.285 95.2197 110.998 131.451 110.998 176.145C110.998 179.861 111.271 183.513 111.757 187.097C104.938 188.111 99.6914 193.926 99.6914 201.017C99.6914 208.819 106.028 215.146 113.842 215.146C116.14 215.146 118.275 214.55 120.192 213.58C133.725 239.425 160.811 257.074 192.044 257.074C223.814 257.074 251.295 238.815 264.585 212.242C266.96 214.041 269.886 215.146 273.094 215.146C280.908 215.146 287.245 208.819 287.245 201.017C287.245 193.215 280.912 186.889 273.098 186.889Z" fill="#E8DADF"/>
<mask id="mask5_643_593" style="mask-type:luminance" maskUnits="userSpaceOnUse" x="99" y="95" width="189" height="163">
<path d="M273.098 186.889C272.845 186.889 272.605 186.949 272.355 186.963C272.828 183.422 273.098 179.817 273.098 176.145C273.098 131.451 236.81 95.2197 192.048 95.2197C147.285 95.2197 110.998 131.451 110.998 176.145C110.998 179.861 111.271 183.513 111.757 187.097C104.938 188.111 99.6914 193.926 99.6914 201.017C99.6914 208.819 106.028 215.146 113.842 215.146C116.14 215.146 118.275 214.55 120.192 213.58C133.725 239.425 160.811 257.074 192.044 257.074C223.814 257.074 251.295 238.815 264.585 212.242C266.96 214.041 269.886 215.146 273.094 215.146C280.908 215.146 287.245 208.819 287.245 201.017C287.245 193.215 280.912 186.889 273.098 186.889Z" fill="white"/>
</mask>
<g mask="url(#mask5_643_593)">
<path d="M146.32 242.143C159.476 242.143 170.141 231.494 170.141 218.359C170.141 205.224 159.476 194.575 146.32 194.575C133.165 194.575 122.5 205.224 122.5 218.359C122.5 231.494 133.165 242.143 146.32 242.143Z" fill="#E0BAD0"/>
<path d="M238.51 241.6C251.665 241.6 262.33 230.951 262.33 217.816C262.33 204.681 251.665 194.032 238.51 194.032C225.354 194.032 214.689 204.681 214.689 217.816C214.689 230.951 225.354 241.6 238.51 241.6Z" fill="#E0BAD0"/>
</g>
<mask id="mask6_643_593" style="mask-type:luminance" maskUnits="userSpaceOnUse" x="147" y="185" width="18" height="18">
<path d="M147.154 185.352H164.031V202.202H147.154V185.352Z" fill="white"/>
</mask>
<g mask="url(#mask6_643_593)">
<path d="M155.593 202.202C160.253 202.202 164.031 198.43 164.031 193.777C164.031 189.124 160.253 185.352 155.593 185.352C150.932 185.352 147.154 189.124 147.154 193.777C147.154 198.43 150.932 202.202 155.593 202.202Z" fill="black"/>
</g>
<mask id="mask7_643_593" style="mask-type:luminance" maskUnits="userSpaceOnUse" x="222" y="185" width="18" height="18">
<path d="M239.289 185.352H222.412V202.202H239.289V185.352Z" fill="white"/>
</mask>
<g mask="url(#mask7_643_593)">
<path d="M230.85 202.202C235.511 202.202 239.289 198.43 239.289 193.777C239.289 189.124 235.511 185.352 230.85 185.352C226.19 185.352 222.412 189.124 222.412 193.777C222.412 198.43 226.19 202.202 230.85 202.202Z" fill="black"/>
</g>
<path d="M195.369 208.958C197.825 208.958 199.816 206.97 199.816 204.518C199.816 202.066 197.825 200.078 195.369 200.078H190.477C188.021 200.078 186.03 202.066 186.03 204.518C186.03 206.97 188.021 208.958 190.477 208.958H195.369Z" fill="#F493B0"/>
<path d="M196.07 227.11L182.773 224.149C181.809 223.935 180.853 224.541 180.638 225.503C180.423 226.466 181.03 227.42 181.994 227.635L195.292 230.596C196.256 230.81 197.211 230.204 197.426 229.242C197.641 228.279 197.034 227.325 196.07 227.11Z" fill="#BF62A3"/>
<path d="M284.948 128.253C290.201 118.787 293.133 108.34 293.133 97.3509C293.133 54.6107 247.297 33.7881 192.919 33.7881C138.54 33.7881 96.2135 54.6107 96.2135 97.3509C96.2135 108.252 99.0949 118.622 104.271 128.031C86.5133 128.344 72.2109 141.92 72.2109 158.65C72.2109 175.578 86.8406 189.299 104.888 189.299C122.335 189.299 136.543 176.464 137.474 160.317C153.598 169.383 173.336 174.736 194.673 174.736C214.546 174.736 233.032 170.094 248.505 162.133C250.351 177.417 264.164 189.299 280.953 189.299C298.997 189.299 313.627 175.578 313.627 158.65C313.627 142.995 301.106 130.102 284.948 128.253Z" fill="#21273C"/>
<path d="M243.01 85.0414C240.496 80.251 242.962 74.807 247.824 74.433C258.776 73.5942 269.529 78.324 275.525 87.7668C279.789 94.4808 280.866 102.354 279.179 109.769C277.249 118.251 264.164 117.827 258.294 110.809C254.285 106.019 247.47 93.551 243.006 85.0414H243.01Z" fill="#313D6F"/>
<path d="M73.0053 139.148C76.6897 135.183 82.6516 135.689 84.6254 140.139C89.0757 150.164 88.1984 161.868 81.2851 170.66C76.3692 176.916 69.2973 180.558 61.7328 181.447C53.0819 182.465 49.1141 170.007 53.7804 162.137C56.9654 156.767 66.4598 146.192 73.0053 139.148Z" fill="#313D6F"/>
</g>
</svg>
