<svg width="49" height="41" viewBox="0 0 49 41" fill="none" xmlns="http://www.w3.org/2000/svg">
<path d="M0 4.78042L17.329 0V35.2556L0 40.036V4.78042Z" fill="#EEF1E2"/>
<path d="M33.4629 4.78042L17.329 0V35.2556L33.4629 40.036V4.78042Z" fill="#D9DFC3"/>
<path d="M33.4629 4.78042L48.9992 0V35.2556L33.4629 40.036V4.78042Z" fill="#EEF1E2"/>
<path d="M9 18.0915C9 18.0784 9.00438 17.921 9.05873 17.512C9.14294 16.8783 9.57572 15.9918 10.146 15.0217C10.6557 14.1548 11.3771 13.6668 12.0895 13.2182C12.9777 12.6589 13.8362 12.4561 14.3783 12.3838C14.8599 12.3196 15.3095 12.3905 15.7326 12.4962C16.6477 12.7248 17.2173 13.668 17.6598 14.3946C17.9006 14.7899 18.0974 15.2929 18.522 17.0007C18.9466 18.7086 19.5735 21.6198 19.8996 23.1502C20.2257 24.6805 20.232 24.7418 20.3525 24.9747C20.6878 25.6231 21.2636 26.3712 21.8166 26.9599C22.188 27.3552 22.5529 27.5908 22.963 27.8325C23.4143 28.0984 24.0424 28.2184 24.8246 28.3236C25.2569 28.3818 25.7684 28.3681 26.3817 28.2891C26.995 28.2101 27.6964 28.0454 28.4497 27.7651C29.203 27.4848 29.987 27.0939 31.4287 26.1703C32.8703 25.2468 34.946 23.8025 36.1932 22.9875C37.4405 22.1725 37.7964 22.0307 38.1119 21.9331C38.6849 21.7559 39.3501 21.7361 40.045 21.8095C40.6088 21.8691 40.99 22.3676 41.4017 22.8096C42.3204 23.7959 42.9135 24.2403 43.4097 24.4616C43.5143 24.4944 43.603 24.5087 43.685 24.5161C43.767 24.5235 43.8394 24.5235 44 24.5128" stroke="#9FC044" stroke-miterlimit="16" stroke-linecap="round" stroke-dasharray="1 2"/>
<path d="M3.88477 22.459C3.9335 22.459 4.15454 22.5426 4.71494 22.8633C5.09234 23.0793 5.60644 23.4888 6.86842 24.7217C8.13041 25.9545 10.1114 28.0203 11.3564 29.2369C12.6015 30.4535 13.0506 30.7584 13.5134 31.0726" stroke="#9FC044" stroke-width="3" stroke-linecap="round"/>
<path d="M12.5822 21.4072C12.5758 21.4094 12.5693 21.4115 11.9745 22.0675C11.3796 22.7235 10.1966 24.0332 8.59702 26.3541C6.99739 28.675 5.01698 31.9674 2.97656 35.3595" stroke="#9FC044" stroke-width="3" stroke-linecap="round"/>
</svg>
